<svg width="30" height="42" viewBox="0 0 30 42" fill="none" xmlns="http://www.w3.org/2000/svg">
<path d="M12.4993 0.85672L17.5126 7.98306L9.91235 14.6841L4.14709 7.90203L12.4993 0.85672Z" fill="#F1A6A6"/>
<path d="M2.88456 41.5509L29.2221 17.2298C29.0894 16.6929 28.7297 16.0896 28.2177 15.4471C26.3251 13.0674 22.3315 10.1676 19.9134 8.2471C19.6292 8.02444 19.3673 7.81323 19.135 7.6181C18.7404 7.2882 18.4225 7.00377 18.2112 6.77492C16.5218 4.94544 15.1919 6.75436 15.1919 6.75436C14.94 11.8288 8.30307 10.6965 7.72799 13.6091C7.72799 13.6091 7.47146 14.8538 7.11745 18.6663C6.76489 22.4773 4.35425 27.0037 2.49684 31.0659C0.0968828 36.3087 0.495674 38.9641 1.31727 40.2879C1.9689 41.3362 2.88456 41.5509 2.88456 41.5509Z" fill="#4E5F87"/>
<path d="M2.88455 41.5509L29.222 17.2298C29.0894 16.6929 28.7297 16.0896 28.2177 15.4471L1.31738 40.2879C1.96889 41.3362 2.88455 41.5509 2.88455 41.5509Z" fill="#12487D"/>
<path d="M26.535 19.7112L27.3173 18.9887C25.7128 18.8177 23.7184 18.1236 22.0072 16.0788C19.7311 13.3592 19.6727 10.1631 19.9135 8.24722C19.6293 8.02456 19.3674 7.81335 19.1351 7.61823C18.7908 9.59184 18.6269 13.3681 21.3513 16.6265C22.986 18.5793 24.886 19.4068 26.535 19.7112Z" fill="#12487D"/>
<path d="M8.99894 19.8077C9.19367 19.6279 9.24888 19.3322 9.11541 19.0896C8.9585 18.8035 8.59933 18.6989 8.31317 18.8562L6.2908 19.9672C6.00464 20.1235 5.90029 20.4833 6.05734 20.7692C6.21439 21.0551 6.57368 21.1596 6.85958 21.0026L8.88192 19.8918C8.92527 19.8679 8.96442 19.8396 8.99894 19.8077Z" fill="white"/>
<path d="M9.36902 16.9282C9.56375 16.7484 9.61896 16.4527 9.48549 16.2099C9.32858 15.9242 8.96944 15.8194 8.68341 15.9766L6.66104 17.0874C6.37488 17.2439 6.27067 17.6036 6.42758 17.8896C6.58463 18.1755 6.94392 18.2801 7.22982 18.1229L9.25229 17.0121C9.29524 16.9886 9.33437 16.9602 9.36902 16.9282Z" fill="white"/>
<path d="M8.2369 22.2835C8.43162 22.1036 8.4867 21.808 8.35324 21.5652C8.19646 21.2793 7.83719 21.1745 7.55129 21.3318L5.52878 22.4426C5.24236 22.5991 5.13815 22.9587 5.29546 23.2447C5.45237 23.5308 5.81167 23.6354 6.0977 23.4781L8.12004 22.3673C8.16299 22.3435 8.20225 22.3153 8.2369 22.2835Z" fill="white"/>
<path d="M7.44045 24.722C7.63531 24.5422 7.69038 24.2465 7.55705 24.0039C7.40001 23.7178 7.04084 23.6132 6.75481 23.7705L4.73247 24.8813C4.44591 25.038 4.34196 25.3975 4.49901 25.6835C4.65592 25.9694 5.01519 26.0739 5.30109 25.9167L7.32359 24.8058C7.36694 24.7822 7.40606 24.7539 7.44045 24.722Z" fill="white"/>
<path d="M6.43184 27.2288C6.62669 27.049 6.68177 26.7533 6.54844 26.5106C6.39139 26.2246 6.03226 26.1201 5.74623 26.2773L3.72385 27.3881C3.43782 27.5452 3.33322 27.9043 3.49027 28.1902C3.64731 28.4761 4.00658 28.5806 4.29247 28.4235L6.31485 27.3128C6.3582 27.289 6.39719 27.2607 6.43184 27.2288Z" fill="white"/>
<path d="M5.15588 29.7504C5.35061 29.5705 5.40568 29.2749 5.27235 29.0321C5.11544 28.7462 4.75617 28.6416 4.47014 28.7988L2.44777 29.9095C2.16134 30.0663 2.057 30.4258 2.21431 30.7118C2.37122 30.9977 2.73052 31.1023 3.01655 30.9451L5.03889 29.8343C5.08211 29.8106 5.12123 29.7823 5.15588 29.7504Z" fill="white"/>
</svg>
