<svg width="23" height="6" viewBox="0 0 23 6" fill="none" xmlns="http://www.w3.org/2000/svg">
<path d="M5.81503 3.0958C5.81503 4.44413 4.72203 5.53712 3.3737 5.53712C2.02537 5.53712 0.932495 4.44427 0.932495 3.0958C0.932495 1.74748 2.02537 0.654602 3.3737 0.654602C4.72203 0.654602 5.81503 1.74761 5.81503 3.0958Z" fill="#F9A125"/>
<path d="M13.963 3.0958C13.963 4.44413 12.8701 5.53712 11.5218 5.53712C10.1734 5.53712 9.08044 4.44427 9.08044 3.0958C9.08044 1.74748 10.1733 0.654602 11.5218 0.654602C12.8701 0.654602 13.963 1.74761 13.963 3.0958Z" fill="#EA4434"/>
<path d="M22.111 3.0958C22.111 4.44413 21.0182 5.53712 19.6698 5.53712C18.3216 5.53712 17.2286 4.44427 17.2286 3.0958C17.2286 1.74748 18.3216 0.654602 19.6698 0.654602C21.0182 0.654602 22.111 1.74761 22.111 3.0958Z" fill="#414C9F"/>
</svg>
