<svg width="123" height="143" viewBox="0 0 123 143" fill="none" xmlns="http://www.w3.org/2000/svg">
<path d="M121.242 142.144H2.48594C1.60097 142.144 0.881104 141.424 0.881104 140.539V1.78417C0.881104 0.899332 1.60097 0.179443 2.48594 0.179443H121.242C122.127 0.179443 122.847 0.899332 122.847 1.78417V140.539C122.847 141.424 122.127 142.144 121.242 142.144ZM2.48594 0.459283C1.75538 0.459283 1.16107 1.05348 1.16107 1.78404V140.539C1.16107 141.27 1.75538 141.864 2.48594 141.864H121.242C121.973 141.864 122.567 141.27 122.567 140.539V1.78404C122.567 1.05348 121.973 0.459283 121.242 0.459283H2.48594Z" fill="#B3B2B3"/>
</svg>
