<svg width="111" height="62" viewBox="0 0 111 62" fill="none" xmlns="http://www.w3.org/2000/svg">
<path d="M101.146 61.8963L0.871235 36.6778C0.54186 36.5949 0.341987 36.2608 0.424858 35.9314L9.1624 1.18918C9.24527 0.859801 9.57938 0.659939 9.90875 0.742678L110.184 25.9612C110.513 26.0441 110.713 26.3782 110.63 26.7077L101.893 61.4499C101.81 61.7793 101.476 61.9792 101.146 61.8963Z" fill="#EA4434"/>
<path d="M34.7756 26.6463C33.4208 32.0332 27.9557 35.3019 22.5689 33.9471C17.1821 32.5923 13.9134 27.1271 15.2682 21.7403C16.6229 16.3535 22.0881 13.0849 27.4751 14.4397C32.8618 15.7943 36.1302 21.2595 34.7756 26.6463Z" fill="white"/>
<path d="M42.7656 29.6034L42.6973 29.8749L94.0328 42.7855L94.1011 42.514L42.7656 29.6034Z" fill="white"/>
<path d="M44.4362 22.9605L44.3679 23.2321L68.9662 29.4184L69.0344 29.1469L44.4362 22.9605Z" fill="white"/>
<path d="M41.2162 35.7636L41.1479 36.0352L92.4835 48.9458L92.5517 48.6743L41.2162 35.7636Z" fill="white"/>
</svg>
