<svg width="137" height="238" viewBox="0 0 137 238" fill="none" xmlns="http://www.w3.org/2000/svg">
<path d="M25.5628 17.0392C25.5628 17.0392 24.088 28.7672 34.8329 33.3321L36.3077 13.7386L25.5628 17.0392Z" fill="#2D160D"/>
<path d="M64.8106 74.1586H55.6979V97.9658H64.8106V74.1586Z" fill="#FAC6B5"/>
<path d="M50.3317 17.4254C50.3317 17.4254 51.3011 30.8038 45.1914 31.6465V39.5472C45.1914 39.5472 38.6602 44.1823 33.4984 39.5472V25.8528C33.4984 25.8528 30.3381 25.923 29.9168 22.6925C29.4955 19.462 33.0069 21.0773 33.7793 22.9032L33.2175 17.4254H50.3317Z" fill="#FAC6B5"/>
<path d="M33.4984 39.1956C33.4984 39.1956 36.764 43.322 45.4021 39.5297C45.4021 39.5297 57.3057 40.7059 61.1682 51.0295C65.0307 61.353 66.7864 75.89 66.7864 75.89H56.2522L54.3153 100.47H22.679L19.8743 72.6595L17.0653 75.609L6.67151 68.4458C6.67151 68.4458 15.8011 45.2707 22.6834 40.4951C22.6834 40.4951 29.0478 38.5634 33.4984 39.1956Z" fill="#12487D"/>
<path d="M29.0742 56.8137H25.4944V39.7556C26.6872 39.4883 27.8806 39.2897 29.0742 39.1595V56.8137Z" fill="#FFAB12"/>
<path d="M54.3154 56.6125H50.7356V40.9386C52.1279 41.5223 53.3734 42.12 54.3154 42.7475V56.6125Z" fill="#FFAB12"/>
<path d="M25.4943 56.7793L54.3561 56.4369C54.3561 56.4369 57.376 96.6773 56.6736 117.465C55.9714 138.252 55.7255 237.835 55.7255 237.835H44.8754C44.8754 237.835 41.6098 156.933 39.3976 153.14C39.3976 153.14 30.1276 199.069 29.0742 237.835H16.363C16.363 237.835 14.1157 204.407 16.363 186.428C16.363 186.428 12.0819 133.898 20.5781 90.0757C20.5779 90.0759 25.4943 68.4986 25.4943 56.7793Z" fill="#FFAB12"/>
<path d="M135.307 49.9119L126.789 57.2016L112.362 53.2859L110.715 38.4191L118.532 31.7256C117.277 31.2856 115.965 30.9511 114.62 30.7148C100.476 28.2279 87.0093 37.67 84.5225 51.8133C83.599 57.0816 84.3297 62.2662 86.3549 66.8147L4.24034 134.881C2.50611 136.371 1.44078 138.345 1.0736 140.436C0.600877 143.13 1.2844 146.01 3.20413 148.257C6.61461 152.238 12.5991 152.703 16.5802 149.293L99.8945 80.2017C101.694 80.9798 103.607 81.5542 105.621 81.9069C119.753 84.3901 133.224 74.9406 135.707 60.8083C136.365 57.0599 136.194 53.3623 135.307 49.9119ZM10.6103 145.788C8.43605 145.788 6.67271 144.025 6.67271 141.85C6.67271 139.676 8.43605 137.913 10.6103 137.913C12.7845 137.913 14.5478 139.676 14.5478 141.85C14.5478 144.025 12.7846 145.788 10.6103 145.788Z" fill="#223266"/>
<path d="M83.1755 99.3564L79.6939 94.6927C79.3328 94.2089 79.4321 93.5241 79.9159 93.1629L88.4625 86.7825C88.9463 86.4214 89.6312 86.5208 89.9923 87.0045L93.4739 91.6682C93.835 92.152 93.7357 92.8368 93.2519 93.198L84.7052 99.5784C84.2215 99.9395 83.5365 99.84 83.1755 99.3564Z" fill="#FAC6B5"/>
<path d="M16.947 75.5277L15.8591 80.6043L29.7642 120.634C29.7642 120.634 38.1914 126.323 36.5061 131.168C34.8206 136.014 26.1825 133.275 24.4972 123.584C24.4972 123.584 6.3958 92.5322 5.7464 86.7141C5.11492 81.0569 8.0955 69.4273 8.0955 69.4273L16.947 75.5277Z" fill="#FAC6B5"/>
<path d="M23.6664 17.6186H52.5256C52.5256 17.6186 52.3003 5.40046 41.6873 1.47497C35.5161 -0.807602 28.572 1.83347 25.7717 7.78764C24.6375 10.1993 23.8305 13.392 23.6664 17.6186Z" fill="#FFAB12"/>
</svg>
