<svg width="196" height="270" viewBox="0 0 196 270" fill="none" xmlns="http://www.w3.org/2000/svg">
<path d="M111.216 37.9217C115.214 37.9217 118.455 31.9988 118.455 24.6926C118.455 17.3865 115.214 11.4636 111.216 11.4636C107.218 11.4636 103.977 17.3865 103.977 24.6926C103.977 31.9988 107.218 37.9217 111.216 37.9217Z" fill="#FAC6B5"/>
<path d="M186.553 114.753C186.553 114.753 194.661 122.899 195.588 127.07C196.174 129.707 196.019 134.134 195.826 137.034C195.788 137.606 194.987 137.708 194.809 137.163C193.535 133.282 190.612 126.373 185.392 123.98V127.728C185.392 128.603 184.222 128.899 183.808 128.128C182.104 124.952 179.622 119.799 179.521 116.565L186.553 114.753Z" fill="#FAC6B5"/>
<path d="M54.3756 82.0476L39.1538 61.8738C38.5931 61.1307 38.7409 60.0737 39.4841 59.513L44.2216 55.9383C44.9647 55.3776 46.0217 55.5256 46.5823 56.2686L61.804 76.4424C62.3648 77.1855 62.2169 78.2426 61.4737 78.8033L56.7363 82.3779C55.9932 82.9386 54.9363 82.7908 54.3756 82.0476Z" fill="#414C9F"/>
<path d="M105.053 45.0514C105.053 45.0514 99.3036 46.659 95.7117 57.898C92.1199 69.1369 87.2535 79.6807 87.2535 79.6807C87.2535 79.6807 70.453 71.4542 62.2265 68.7893L57.9395 78.5221C57.9395 78.5221 87.0217 96.4813 92.004 92.7736C96.9863 89.0659 103.745 81.7664 103.745 81.7664V88.9501L141.054 88.757L142.753 74.6986C142.753 74.6986 156.039 102.661 179.367 119.037L187.4 114.247C187.4 114.247 175.659 104.529 161.755 82.044C161.755 82.044 153.481 49.4486 143.328 47.2428C133.175 45.037 133.175 45.037 133.175 45.037L105.053 45.0514Z" fill="#4E5F87"/>
<path d="M61.9462 69.9735C61.9462 69.9735 59.3255 63.8482 54.7234 62.2977C54.0597 62.0741 53.4649 62.7883 53.782 63.4126L55.5157 66.8258C55.5157 66.8258 46.6428 67.0216 42.9693 66.4529C42.4496 66.3724 42.1025 66.9691 42.4355 67.3763C44.1412 69.4625 48.4647 73.5732 58.2964 77.7171L61.9462 69.9735Z" fill="#FAC6B5"/>
<path d="M103.745 89.1432C103.745 89.1432 103.359 118.032 102.432 121.277C102.432 121.277 93.3945 150.011 92.0041 170.867C91.1698 183.383 90.836 194.731 90.7027 201.805C90.6114 206.643 91.2064 211.469 92.4704 216.14C96.3948 230.645 105.161 263.722 104.981 269.121H120.971C120.971 269.121 114.482 229.263 110.774 212.579C110.774 212.579 109.384 175.965 119.348 159.744L118.009 189.22C117.653 197.041 119.575 204.795 123.535 211.549C130.537 223.489 143.22 242.805 159.438 257.534L171.951 244.789L141.826 205.395C141.826 205.395 145.302 141.669 142.985 123.594C140.668 105.519 141.093 88.9691 141.093 88.9691L103.745 89.1432Z" fill="#FFAB12"/>
<path d="M117.494 75.9346H110.311V94.2414H117.494V75.9346Z" fill="#FFAB12"/>
<path d="M138.466 75.9346H131.282V94.2414H138.466V75.9346Z" fill="#FFAB12"/>
<path d="M1.89677 62.6307L0.588501 60.8125L55.9762 20.9588L65.0959 32.0847L39.3861 52.0639L42.7892 56.9067L40.9566 58.1944L36.3263 51.6051L61.9064 31.7265L55.5773 24.005L1.89677 62.6307Z" fill="#414C9F"/>
<path d="M133.233 25.7299C133.233 25.7299 133.021 28.9703 140.127 39.012C145.38 46.4347 144.977 64.0707 144.41 72.7656C144.011 78.888 140.127 84.3158 134.371 86.4406C130.411 87.9025 125.161 88.0038 118.499 84.5858C100.732 75.4711 103.977 58.3229 103.977 58.3229C103.977 58.3229 107.324 23.7859 106.578 14.946L133.233 25.7299Z" fill="#2D160D"/>
<path d="M103.977 11.8222C103.977 11.8222 106.945 3.36809 116.175 0.870502C123.999 -1.24672 132.307 2.63596 135.211 10.2038C136.704 14.0962 136.921 19.2376 133.793 25.7262C133.793 25.7262 114.482 26.344 103.977 11.8222Z" fill="#FFAB12"/>
<path d="M49.9631 35.6984L13.3341 63.3361C12.1351 64.2408 10.4294 64.0022 9.52471 62.8032L2.91286 54.0404C2.00813 52.8413 2.24672 51.1357 3.44578 50.2309L40.0748 22.5932C41.274 21.6885 42.9795 21.9271 43.8842 23.1261L50.4959 31.889C51.4009 33.088 51.1623 34.7937 49.9631 35.6984Z" fill="#FFAB12"/>
</svg>
