<svg width="26" height="18" viewBox="0 0 26 18" fill="none" xmlns="http://www.w3.org/2000/svg">
<path d="M1.31555 1.32543L2.10816 7.27023L9.08077 7.10976L8.82913 0.987885L1.31555 1.32543Z" fill="#F1A6A6"/>
<path d="M25.1809 17.4144H0.504801C0.321274 17.0809 0.221409 16.6079 0.180171 16.0439C0.0260233 13.9567 0.691358 10.6254 1.01744 8.52505C1.0571 8.27974 1.09096 8.05061 1.11731 7.8435C1.16276 7.49238 1.19069 7.20016 1.19069 6.98568C1.19069 5.27161 2.70793 5.56528 2.70793 5.56528C5.20498 8.01385 8.03247 4.34185 9.6833 5.54617C9.6833 5.54617 10.3942 6.05579 12.3536 7.81847C14.3115 9.58103 17.6443 10.7444 20.4806 11.9312C24.1425 13.4617 25.1808 14.9907 25.3835 16.0439C25.5438 16.8781 25.1809 17.4144 25.1809 17.4144Z" fill="#FAAE29"/>
<path d="M25.1809 17.4143H0.504806C0.321279 17.0809 0.221414 16.6079 0.180176 16.0439H25.3836C25.5438 16.8781 25.1809 17.4143 25.1809 17.4143Z" fill="#DB8027"/>
<path d="M3.02243 17.4143H2.28937C3.02085 16.5785 3.70542 15.2962 3.61583 13.4631C3.49686 11.025 2.03391 9.38141 1.01746 8.52503C1.05711 8.27971 1.09098 8.05059 1.11733 7.84348C2.21309 8.68075 4.0593 10.5139 4.2033 13.4337C4.28855 15.1847 3.71425 16.4904 3.02243 17.4143Z" fill="#DB8027"/>
<path d="M11.9355 9.2743C11.753 9.2743 11.587 9.15059 11.5411 8.96548C11.487 8.74756 11.6198 8.52688 11.8378 8.47286L13.3793 8.09025C13.5971 8.03571 13.8179 8.16891 13.8719 8.38682C13.9261 8.60474 13.7931 8.82542 13.5752 8.87944L12.0338 9.26217C12.0008 9.27034 11.9679 9.2743 11.9355 9.2743Z" fill="white"/>
<path d="M10.4036 7.99091C10.2211 7.99091 10.0551 7.8672 10.0093 7.68209C9.95513 7.46431 10.0879 7.24365 10.306 7.18964L11.8475 6.8069C12.0652 6.75235 12.2859 6.88555 12.3401 7.10359C12.3942 7.32151 12.2614 7.54219 12.0434 7.59621L10.5019 7.97895C10.4691 7.98698 10.4362 7.99091 10.4036 7.99091Z" fill="white"/>
<path d="M13.4769 10.1703C13.2944 10.1703 13.1285 10.0466 13.0827 9.86152C13.0284 9.64374 13.1612 9.42305 13.3793 9.36903L14.9207 8.98629C15.1387 8.93162 15.3592 9.06495 15.4134 9.28286C15.4676 9.50077 15.3347 9.72146 15.1167 9.77548L13.5753 10.1581C13.5422 10.1663 13.5093 10.1703 13.4769 10.1703Z" fill="white"/>
<path d="M15.0184 11.0316C14.8359 11.0316 14.67 10.9077 14.624 10.7227C14.5699 10.5048 14.7027 10.2841 14.9207 10.2301L16.4622 9.84752C16.6803 9.79297 16.9007 9.92617 16.9548 10.1441C17.009 10.362 16.876 10.5826 16.6581 10.6367L15.1165 11.0193C15.0837 11.0277 15.0506 11.0316 15.0184 11.0316Z" fill="white"/>
<path d="M16.6991 11.8283C16.5167 11.8283 16.3507 11.7044 16.3048 11.5195C16.2507 11.3014 16.3835 11.0809 16.6015 11.0268L18.143 10.6442C18.3609 10.5901 18.5816 10.7229 18.6356 10.9408C18.6898 11.1587 18.5568 11.3794 18.3388 11.4334L16.7973 11.816C16.7645 11.8243 16.7316 11.8283 16.6991 11.8283Z" fill="white"/>
<path d="M18.5219 12.5076C18.3394 12.5076 18.1734 12.3839 18.1276 12.1988C18.0734 11.9808 18.2062 11.7602 18.4243 11.7061L19.9657 11.3235C20.1838 11.269 20.4043 11.4021 20.4584 11.6202C20.5125 11.838 20.3797 12.0587 20.1617 12.1128L18.6202 12.4956C18.5871 12.5036 18.5542 12.5076 18.5219 12.5076Z" fill="white"/>
</svg>
