<svg width="106" height="38" viewBox="0 0 106 38" fill="none" xmlns="http://www.w3.org/2000/svg">
<path d="M104.554 37.8369H104.554H102.577V37.557H104.555C104.85 37.557 105.118 37.3944 105.256 37.1329L105.503 37.2628C105.354 37.548 105.089 37.7462 104.783 37.8126V37.8369H104.555C104.554 37.8369 104.554 37.8369 104.554 37.8369ZM100.6 37.8369H98.6226V37.557H100.6V37.8369ZM96.6456 37.8369H94.6683V37.557H96.6456V37.8369ZM92.6912 37.8369H90.7141V37.557H92.6912V37.8369ZM88.737 37.8369H86.76V37.557H88.737V37.8369ZM84.7828 37.8369H82.8055V37.557H84.7828V37.8369ZM80.8285 37.8369H78.8513V37.557H80.8285V37.8369ZM76.8741 37.8369H74.897V37.557H76.8741V37.8369ZM72.9201 37.8369H70.9429V37.557H72.9201V37.8369ZM68.9656 37.8369H66.9884V37.557H68.9656V37.8369ZM65.0114 37.8369H63.0342V37.557H65.0114V37.8369ZM61.0572 37.8369H59.08V37.557H61.0572V37.8369ZM57.1029 37.8369H55.1258V37.557H57.1029V37.8369ZM53.1486 37.8369H51.1714V37.557H53.1486V37.8369ZM49.1943 37.8369H47.2171V37.557H49.1943V37.8369ZM45.24 37.8369H43.2629V37.557H45.24V37.8369ZM41.2858 37.8369H39.3087V37.557H41.2858V37.8369ZM37.3315 37.8369H35.3543V37.557H37.3315V37.8369ZM33.3773 37.8369H31.4001V37.557H33.3773V37.8369ZM29.4231 37.8369H27.446V37.557H29.4231V37.8369ZM25.4689 37.8369H23.4917V37.557H25.4689V37.8369ZM21.5145 37.8369H19.5373V37.557H21.5145V37.8369ZM17.5602 37.8369H15.583V37.557H17.5602V37.8369ZM13.606 37.8369H11.6289V37.557H13.606V37.8369ZM9.65173 37.8369H7.67457V37.557H9.65173V37.8369ZM5.6974 37.8369H3.72022V37.557H5.6974V37.8369ZM1.73646 37.8356C1.16506 37.8079 0.717642 37.338 0.717773 36.7657V36.206H0.997742V36.7657C0.99761 37.1885 1.32804 37.5356 1.7499 37.5559L1.73646 37.8356ZM105.625 35.2379H105.345V33.2607H105.625V35.2379ZM0.997742 34.229H0.717773V32.2518H0.997742V34.229ZM105.625 31.2836H105.345V29.3064H105.625V31.2836ZM0.997742 30.2748H0.717773V28.2976H0.997742V30.2748ZM105.625 27.3294H105.345V25.3522H105.625V27.3294ZM0.997742 26.3204H0.717773V24.3434H0.997742V26.3204ZM105.625 23.3751H105.345V21.398H105.625V23.3751ZM0.997742 22.3661H0.717773V20.3889H0.997742V22.3661ZM105.625 19.4209H105.345V17.4436H105.625V19.4209ZM0.997742 18.4118H0.717773V16.4347H0.997742V18.4118ZM105.625 15.4665H105.345V13.4893H105.625V15.4665ZM0.997742 14.4576H0.717773V12.4805H0.997742V14.4576ZM105.625 11.5122H105.345V9.53506H105.625V11.5122ZM0.997742 10.5034H0.717773V8.52613H0.997742V10.5034ZM105.625 7.55803H105.345V5.58084H105.625V7.55803ZM0.997742 6.54907H0.717773V4.57191H0.997742V6.54907ZM105.625 3.60381H105.345V1.62651H105.625V3.60381ZM0.997742 2.59487H0.717773V1.57406C0.717773 1.19634 0.910777 0.853796 1.23422 0.65762L1.37942 0.897141C1.14042 1.04207 0.997742 1.29502 0.997742 1.57406V2.59487ZM104.093 0.782776H102.116V0.502808H104.093V0.782776ZM100.139 0.782776H98.1614V0.502808H100.139V0.782776ZM96.1845 0.782776H94.2072V0.502808H96.1845V0.782776ZM92.23 0.782776H90.2528V0.502808H92.23V0.782776ZM88.2758 0.782776H86.2987V0.502808H88.2758V0.782776ZM84.3216 0.782776H82.3444V0.502808H84.3216V0.782776ZM80.3672 0.782776H78.3901V0.502808H80.3672V0.782776ZM76.413 0.782776H74.4358V0.502808H76.413V0.782776ZM72.4587 0.782776H70.4816V0.502808H72.4587V0.782776ZM68.5046 0.782776H66.5275V0.502808H68.5046V0.782776ZM64.5501 0.782776H62.5729V0.502808H64.5501V0.782776ZM60.5959 0.782776H58.6187V0.502808H60.5959V0.782776ZM56.6417 0.782776H54.6645V0.502808H56.6417V0.782776ZM52.6875 0.782776H50.7103V0.502808H52.6875V0.782776ZM48.7331 0.782776H46.756V0.502808H48.7331V0.782776ZM44.7788 0.782776H42.8016V0.502808H44.7788V0.782776ZM40.8247 0.782776H38.8477V0.502808H40.8247V0.782776ZM36.8704 0.782776H34.8932V0.502808H36.8704V0.782776ZM32.916 0.782776H30.9388V0.502808H32.916V0.782776ZM28.9618 0.782776H26.9846V0.502808H28.9618V0.782776ZM25.0076 0.782776H23.0304V0.502808H25.0076V0.782776ZM21.0534 0.782776H19.0761V0.502808H21.0534V0.782776ZM17.099 0.782776H15.1219V0.502808H17.099V0.782776ZM13.1447 0.782776H11.1675V0.502808H13.1447V0.782776ZM9.19048 0.782776H7.21331V0.502808H9.19048V0.782776ZM5.23613 0.782776H3.25896V0.502808H5.23613V0.782776Z" fill="#B3B2B3"/>
</svg>
