<svg width="26" height="18" viewBox="0 0 26 18" fill="none" xmlns="http://www.w3.org/2000/svg">
<path d="M1.37793 1.32543L2.17054 7.27023L9.14314 7.10976L8.8915 0.987885L1.37793 1.32543Z" fill="#F1A6A6"/>
<path d="M25.2433 17.4144H0.567181C0.383653 17.0809 0.283786 16.6079 0.242549 16.0439C0.0884011 13.9567 0.753738 10.6254 1.07982 8.52505C1.11948 8.27974 1.15334 8.05061 1.17969 7.8435C1.22514 7.49238 1.25307 7.20016 1.25307 6.98568C1.25307 5.27161 2.7703 5.56528 2.7703 5.56528C5.26736 8.01385 8.09485 4.34185 9.74581 5.54617C9.74581 5.54617 10.4567 6.05579 12.4161 7.81847C14.3741 9.58103 17.7068 10.7444 20.5431 11.9312C24.205 13.4617 25.2433 14.9907 25.4461 16.0439C25.6061 16.8781 25.2433 17.4144 25.2433 17.4144Z" fill="#FAAE29"/>
<path d="M25.2433 17.4143H0.567186C0.383659 17.0809 0.283791 16.6079 0.242554 16.0439H25.4459C25.6061 16.8781 25.2433 17.4143 25.2433 17.4143Z" fill="#DB8027"/>
<path d="M3.08481 17.4143H2.35175C3.08323 16.5785 3.7678 15.2962 3.67821 13.4631C3.55924 11.025 2.09629 9.38141 1.07983 8.52503C1.11949 8.27971 1.15335 8.05059 1.1797 7.84348C2.27547 8.68075 4.12168 10.5139 4.26568 13.4337C4.35092 15.1847 3.77649 16.4904 3.08481 17.4143Z" fill="#DB8027"/>
<path d="M11.9977 9.2743C11.8153 9.2743 11.6494 9.15059 11.6034 8.96548C11.5493 8.74756 11.6819 8.52688 11.9001 8.47286L13.4416 8.09025C13.6594 8.03571 13.88 8.16891 13.9342 8.38682C13.9882 8.60474 13.8554 8.82542 13.6375 8.87944L12.096 9.26217C12.0632 9.27034 12.0301 9.2743 11.9977 9.2743Z" fill="white"/>
<path d="M10.466 7.99091C10.2835 7.99091 10.1175 7.8672 10.0717 7.68209C10.0175 7.46431 10.1503 7.24365 10.3684 7.18964L11.9098 6.8069C12.1276 6.75235 12.3483 6.88555 12.4025 7.10359C12.4566 7.32151 12.3238 7.54219 12.1057 7.59621L10.5643 7.97895C10.5315 7.98698 10.4984 7.99091 10.466 7.99091Z" fill="white"/>
<path d="M13.5391 10.1703C13.3567 10.1703 13.1908 10.0466 13.1449 9.86152C13.0907 9.64374 13.2236 9.42305 13.4415 9.36903L14.983 8.98629C15.2009 8.93162 15.4215 9.06495 15.4756 9.28286C15.5299 9.50077 15.397 9.72146 15.1789 9.77548L13.6376 10.1581C13.6046 10.1663 13.5716 10.1703 13.5391 10.1703Z" fill="white"/>
<path d="M15.0806 11.0316C14.8981 11.0316 14.7321 10.9077 14.6863 10.7227C14.6321 10.5048 14.7649 10.2841 14.983 10.2301L16.5245 9.84752C16.7425 9.79297 16.9629 9.92617 17.0171 10.1441C17.0712 10.362 16.9383 10.5826 16.7204 10.6367L15.1788 11.0193C15.146 11.0277 15.113 11.0316 15.0806 11.0316Z" fill="white"/>
<path d="M16.7614 11.8283C16.5789 11.8283 16.4129 11.7044 16.3671 11.5195C16.3129 11.3014 16.4457 11.0809 16.6638 11.0268L18.2052 10.6442C18.4232 10.5901 18.6438 10.7229 18.6979 10.9408C18.752 11.1587 18.6191 11.3794 18.4012 11.4334L16.8597 11.816C16.8267 11.8243 16.7938 11.8283 16.7614 11.8283Z" fill="white"/>
<path d="M18.5842 12.5076C18.4017 12.5076 18.2357 12.3839 18.1898 12.1988C18.1357 11.9808 18.2685 11.7602 18.4865 11.7061L20.0279 11.3235C20.2459 11.269 20.4665 11.4021 20.5205 11.6202C20.5746 11.838 20.4418 12.0587 20.2238 12.1128L18.6823 12.4956C18.6495 12.5036 18.6166 12.5076 18.5842 12.5076Z" fill="white"/>
</svg>
