<svg width="126" height="202" viewBox="0 0 126 202" fill="none" xmlns="http://www.w3.org/2000/svg">
<path d="M117.856 171.335H63.6733V181.926H117.856V171.335Z" fill="#27384C"/>
<path d="M64.3439 201.462H69.2747L36.9604 34.2794C35.7066 27.8122 37.0466 21.2439 40.7331 15.7842C44.4196 10.3249 50.0116 6.62744 56.4788 5.37371C58.0609 5.067 59.648 4.91574 61.2243 4.91574C66.0921 4.91574 70.85 6.36158 74.974 9.14624C80.4334 12.8326 84.1308 18.4247 85.3869 24.905L120.605 201.462H125.542L90.1371 23.9705C88.6373 16.2334 84.2145 9.54411 77.6831 5.13405C71.152 0.723581 63.2934 -0.879936 55.5573 0.621092C39.586 3.71722 29.1117 19.2294 32.2075 35.1995L64.3439 201.462Z" fill="#27384C"/>
<path d="M4.90255 201.462L32.5967 27.9741C33.6264 21.4675 37.1282 15.7514 42.4572 11.8785C47.7865 8.00555 54.3041 6.43916 60.8115 7.46958C67.3181 8.49933 73.0342 12.0011 76.9071 17.3301C80.78 22.6592 82.3457 29.1772 81.3112 35.7145L57.2385 201.462H62.1305L86.0974 36.4409C87.3293 28.657 85.4562 20.8591 80.8234 14.4841C76.1902 8.10895 69.3521 3.91957 61.5682 2.68811C53.7848 1.45506 45.9864 3.32868 39.6112 7.96219C33.236 12.5954 29.0467 19.4338 27.8155 27.2144L0 201.462H4.90255Z" fill="#36495E"/>
<path d="M81.7043 44.4108H27.5216V49.8497H81.7043V44.4108Z" fill="#36495E"/>
<path d="M75.7921 75.2574H21.6094V80.6963H75.7921V75.2574Z" fill="#36495E"/>
<path d="M70.0209 109.588H15.8381V115.027H70.0209V109.588Z" fill="#36495E"/>
<path d="M65.9723 140.821H11.7896V146.26H65.9723V140.821Z" fill="#36495E"/>
<path d="M61.1754 174.766H6.99268V180.205H61.1754V174.766Z" fill="#36495E"/>
</svg>
