<svg width="39" height="56" viewBox="0 0 39 56" fill="none" xmlns="http://www.w3.org/2000/svg">
<path d="M37.6611 55.5483C37.5733 55.5483 37.4848 55.521 37.4093 55.4641L0.46925 27.7225C0.323798 27.6136 0.2653 27.4235 0.323797 27.2515C0.382294 27.0795 0.531558 26.9689 0.726284 26.9668L37.1807 27.3891L0.480701 1.74157C0.330242 1.63657 0.26557 1.44619 0.320774 1.27135C0.375713 1.09639 0.537903 0.977417 0.721299 0.977417H38.5373C38.7692 0.977417 38.9572 1.16543 38.9572 1.39731C38.9572 1.62919 38.7691 1.81719 38.5373 1.81719H2.05527L38.7779 27.4805C38.9289 27.5861 38.9934 27.7777 38.9371 27.9531C38.8811 28.1286 38.7118 28.2422 38.5325 28.2447L1.99952 27.8215L37.9135 54.7925C38.0992 54.9317 38.1366 55.195 37.9972 55.3806C37.9146 55.4903 37.7885 55.5483 37.6611 55.5483Z" fill="white"/>
</svg>
