<svg width="38" height="25" viewBox="0 0 38 25" fill="none" xmlns="http://www.w3.org/2000/svg">
<path d="M35.9614 1.35395L34.8099 9.99055L24.6801 9.75748L25.0457 0.863586L35.9614 1.35395Z" fill="#F1A6A6"/>
<path d="M1.2896 24.7279H37.139C37.4057 24.2434 37.5509 23.5562 37.6107 22.7369C37.8347 19.7047 36.8682 14.8649 36.3944 11.8135C36.3367 11.4571 36.2877 11.1243 36.2492 10.8234C36.1832 10.3133 36.1426 9.88876 36.1426 9.57717C36.1426 7.08696 33.9383 7.51368 33.9383 7.51368C30.3106 11.0709 26.2029 5.73625 23.8043 7.48602C23.8043 7.48602 22.7714 8.22648 19.925 10.7872C17.0804 13.3479 12.2387 15.0378 8.11821 16.762C2.79828 18.9854 1.28974 21.2069 0.995282 22.7369C0.762612 23.949 1.2896 24.7279 1.2896 24.7279Z" fill="#4E5F87"/>
<path d="M1.2897 24.7279H37.1391C37.4058 24.2434 37.551 23.5562 37.6108 22.7369H0.995221C0.762682 23.949 1.2897 24.7279 1.2897 24.7279Z" fill="#12487D"/>
<path d="M33.4816 24.7278H34.5466C33.4839 23.5136 32.4894 21.6507 32.6196 18.9875C32.7925 15.4453 34.9178 13.0576 36.3945 11.8135C36.3368 11.4571 36.2878 11.1243 36.2493 10.8234C34.6575 12.0397 31.9752 14.7029 31.766 18.9448C31.6423 21.4887 32.4766 23.3856 33.4816 24.7278Z" fill="#12487D"/>
<path d="M20.533 12.902C20.7981 12.902 21.0392 12.7223 21.1058 12.4534C21.1846 12.1368 20.9916 11.8162 20.6749 11.7377L18.4354 11.1818C18.119 11.1025 17.7984 11.2961 17.7197 11.6128C17.6412 11.9294 17.8341 12.25 18.1508 12.3285L20.3903 12.8845C20.438 12.8962 20.4858 12.902 20.533 12.902Z" fill="white"/>
<path d="M22.7584 11.0376C23.0234 11.0376 23.2647 10.8578 23.3312 10.5889C23.4099 10.2724 23.217 9.95186 22.9003 9.87333L20.6609 9.31735C20.3446 9.23817 20.0239 9.43171 19.9452 9.74831C19.8666 10.0649 20.0596 10.3854 20.3763 10.4638L22.6157 11.0198C22.6632 11.0318 22.7112 11.0376 22.7584 11.0376Z" fill="white"/>
<path d="M18.2935 14.2038C18.5586 14.2038 18.7997 14.024 18.8662 13.7551C18.945 13.4386 18.752 13.1181 18.4353 13.0397L16.1958 12.4837C15.8792 12.4044 15.5588 12.5979 15.4803 12.9146C15.4015 13.2312 15.5945 13.5518 15.9113 13.6302L18.1507 14.186C18.1985 14.1979 18.2465 14.2038 18.2935 14.2038Z" fill="white"/>
<path d="M16.054 15.455C16.3192 15.455 16.5602 15.2752 16.627 15.0064C16.7056 14.6898 16.5127 14.3691 16.1958 14.2907L13.9564 13.7348C13.6395 13.6554 13.3194 13.8491 13.2407 14.1657C13.162 14.4822 13.3551 14.8027 13.6718 14.8813L15.9114 15.4372C15.9591 15.4494 16.0071 15.455 16.054 15.455Z" fill="white"/>
<path d="M13.6123 16.6124C13.8774 16.6124 14.1184 16.4325 14.1852 16.1639C14.2639 15.8471 14.0709 15.5267 13.7542 15.4483L11.5148 14.8924C11.1981 14.8136 10.8777 15.0066 10.799 15.3232C10.7205 15.6398 10.9134 15.9602 11.2301 16.0388L13.4695 16.5948C13.5173 16.6067 13.5651 16.6124 13.6123 16.6124Z" fill="white"/>
<path d="M10.9642 17.5993C11.2293 17.5993 11.4704 17.4194 11.5372 17.1505C11.6159 16.8341 11.423 16.5135 11.1062 16.435L8.86679 15.879C8.54993 15.7998 8.2295 15.9931 8.15098 16.31C8.07232 16.6264 8.26537 16.9471 8.58209 17.0255L10.8214 17.5815C10.8692 17.5935 10.9171 17.5993 10.9642 17.5993Z" fill="white"/>
</svg>
